<?xml version="1.0" encoding="UTF-8"?>
<svg id="Layer_1" data-name="Layer 1" xmlns="http://www.w3.org/2000/svg" viewBox="0 0 647.98 531.8">
  <defs>
    <style>
      .cls-1 {
        fill: #ff343a;
        stroke-width: 0px;
      }
    </style>
  </defs>
  <path class="cls-1" d="M0,531.4C107.88,354.45,215.68,177.62,323.97,0c4.15,6.53,8.08,12.57,11.87,18.71,25.35,41.05,50.62,82.15,76.09,123.12,2.05,3.3,2.22,5.52.15,8.88-23.81,38.67-47.36,77.49-71.14,116.18-16.55,26.93-33.3,53.73-50.02,80.55-9.51,15.25-19.16,30.41-28.68,45.65-.91,1.45-1.27,3.25-1.88,4.88,1.69.44,3.39,1.25,5.08,1.26,30.82.14,61.65.18,92.47.24,1.61,0,3.23,0,5.18.91-2.69,1.72-5.31,3.54-8.07,5.14-34.82,20.23-69.63,40.47-104.5,60.61-20.89,12.07-41.98,23.79-62.7,36.13-3.4,2.03-5.62,6.31-7.92,9.84-3.45,5.29-6.31,10.97-9.81,16.23-1.03,1.54-3.24,2.76-5.11,3.16-2.55.54-5.3.17-7.97.17-51.98-.05-103.97-.11-155.95-.17-.48,0-.96-.09-1.08-.11Z"/>
  <path class="cls-1" d="M647.98,531.38c-2.61.12-4.22.26-5.83.26-54,.02-108-.02-161.99.12-3.89.01-6-1.36-7.91-4.56-31.98-53.77-64.04-107.5-96.12-161.21-8.02-13.43-16.12-26.82-24.34-40.12-1.62-2.62-1.77-4.55-.02-7.21,24.66-37.56,49.21-75.2,73.81-112.81,3.27-5,6.67-9.91,10.61-15.75,70.62,113.8,140.91,227.07,211.79,341.28Z"/>
</svg>